              <svg id="sw-js-blob-svg" viewBox="0 0 100 100" xmlns="http://www.w3.org/2000/svg" version="1.1">
                    <defs> 
                        <linearGradient id="sw-gradient" x1="0" x2="1" y1="1" y2="0">
                            <stop id="stop1" stop-color="rgba(235, 224, 0, 1)" offset="0%"></stop>
                            <stop id="stop2" stop-color="rgba(6, 67, 49, 0.9411764705882353)" offset="100%"></stop>
                        </linearGradient>
                    </defs>
                <path fill="url(#sw-gradient)" d="M22,-25.7C29.3,-20.2,36.4,-13.9,38.6,-6.1C40.7,1.6,37.9,10.9,33.1,18.9C28.2,26.8,21.4,33.3,12.9,37.3C4.4,41.2,-5.8,42.4,-14.8,39.6C-23.9,36.8,-31.9,29.9,-36.2,21.4C-40.5,12.9,-41.1,2.8,-38.9,-6.3C-36.6,-15.4,-31.4,-23.3,-24.5,-28.9C-17.5,-34.5,-8.8,-37.7,-0.7,-36.9C7.4,-36.1,14.8,-31.2,22,-25.7Z" width="100%" height="100%" transform="translate(50 50)" stroke-width="0" style="transition: all 0.3s ease 0s;" stroke="url(#sw-gradient)"></path>
              </svg>